<svg xmlns="http://www.w3.org/2000/svg" viewBox="0 0 127.14 96.36">
  <path fill="#5865F2" d="M107.7 8.07A105.15 105.15 0 0 0 81.47 0a72.06 72.06 0 0 0-3.36 6.83 97.68 97.68 0 0 0-29.11 0A72.37 72.37 0 0 0 45.64 0 105.89 105.89 0 0 0 19.39 8.09C2.79 32.65-1.74 56.61.54 80.24A105.73 105.73 0 0 0 32.71 96.36a77.7 77.7 0 0 0 6.89-11.32 68.42 68.42 0 0 1-10.84-5.18c.91-.67 1.8-1.37 2.66-2.1 20.9 9.54 43.61 9.54 64.26 0 .87.73 1.76 1.43 2.67 2.1a68.68 68.68 0 0 1-10.86 5.19 77.22 77.22 0 0 0 6.89 11.31A105.25 105.25 0 0 0 126.6 80.22c2.68-27.39-4.59-51.13-18.9-72.15ZM42.45 65.69c-6.27 0-11.41-5.73-11.41-12.8s5.05-12.81 11.41-12.81c6.4 0 11.52 5.78 11.41 12.81 0 7.07-5.06 12.8-11.41 12.8Zm42.24 0c-6.27 0-11.41-5.73-11.41-12.8s5.05-12.81 11.41-12.81c6.4 0 11.52 5.78 11.41 12.81 0 7.07-5.06 12.8-11.41 12.8Z"/>
</svg>
