<svg xmlns="http://www.w3.org/2000/svg" viewBox="0 0 448 512">
  <path fill="#E4405F" d="M224.1 141c-63.6 0-114.9 51.3-114.9 114.9S160.5 370.8 224.1 370.8 339 319.5 339 255.9 287.7 141 224.1 141Zm0 189.6c-41.2 0-74.7-33.5-74.7-74.7s33.5-74.7 74.7-74.7 74.7 33.5 74.7 74.7-33.5 74.7-74.7 74.7Zm146.4-194.3c0 14.9-12 26.9-26.9 26.9-14.8 0-26.8-12-26.8-26.9s12-26.8 26.8-26.8c14.9 0 26.9 12 26.9 26.8ZM447.8 162.3c-1-35.3-9.7-66.7-35.6-92.5S355.1 35.2 319.8 34.2C283.8 32.9 164.2 32.9 128.2 34.2 92.9 35.2 61.5 43.9 35.7 69.8S1 126.9 0 162.3c-1.3 36-1.3 155.6 0 191.6 1 35.3 9.7 66.7 35.7 92.5s57.2 34.6 92.5 35.6c36 1.3 155.6 1.3 191.6 0 35.3-1 66.7-9.7 92.5-35.6s34.6-57.2 35.6-92.5c1.3-36 1.3-155.6-.1-191.6ZM398.8 388c-7.8 19.6-22.9 34.7-42.5 42.5-29.4 11.7-99.2 9-132.2 9s-102.9 2.6-132.2-9c-19.6-7.8-34.7-22.9-42.5-42.5-11.7-29.4-9-99.2-9-132.2s-2.6-102.9 9-132.2c7.8-19.6 22.9-34.7 42.5-42.5 29.4-11.7 99.2-9 132.2-9s102.9-2.6 132.2 9c19.6 7.8 34.7 22.9 42.5 42.5 11.7 29.4 9 99.2 9 132.2s2.7 102.8-9 132.2Z"/>
</svg>
